<?xml version="1.0" encoding="utf-8"?><!DOCTYPE svg PUBLIC "-//W3C//DTD SVG 1.1//EN" "http://www.w3.org/Graphics/SVG/1.1/DTD/svg11.dtd"><svg version="1.1" xmlns="http://www.w3.org/2000/svg" xmlns:xlink="http://www.w3.org/1999/xlink" x="0px" y="0px" viewBox="12.368 -0.374 76.099 100" enable-background="new 12.368 -0.374 76.099 100" xml:space="preserve"><g><g><path d="M84.868,64.865c-2.589-2.306-5.567-4.338-8.929-6.021c-1.694-0.85-2.195-1.688-2.01-3.161
			c1.118-8.796,1.176-17.582-1.221-26.303c-2.966-10.8-9.554-20.312-20.385-29.145c-1.02-0.805-2.88-0.917-4.388,0.305
			c-4.874,3.951-9.039,8.254-12.42,12.946c-6.002,8.335-8.925,17.25-9.672,26.572c-0.481,5.974-0.067,11.931,0.677,17.882
			c0.04,0.306-0.156,0.74-0.464,0.941c-2.839,1.845-5.836,3.564-8.57,5.483c-3.334,2.339-5.018,5.254-5.11,8.635
			c-0.07,2.556,0.318,5.069,1.11,7.552c1.955,6.13,5.269,11.903,9.013,17.558c0.279,0.421,0.713,0.853,1.236,1.109
			c1.638,0.812,3.434,0.38,4.443-1.044c2.601-3.675,5.179-7.355,7.741-11.039c0.324-0.469,0.696-0.651,1.456-0.651
			c3.361,0.01,6.722-0.004,10.083-0.001v10.083c0,1.689,1.369,3.059,3.059,3.059c1.688,0,3.059-1.369,3.059-3.059V86.481
			c3.476-0.002,6.953,0.009,10.427-0.001c0.763-0.004,1.116,0.191,1.443,0.662c2.346,3.372,4.719,6.735,7.129,10.082
			c0.349,0.485,0.832,1.009,1.449,1.285c1.731,0.784,3.492,0.294,4.414-1.238c2.036-3.39,4.146-6.759,5.932-10.215
			c2.122-4.104,3.742-8.322,4.053-12.734C88.662,70.896,87.993,67.648,84.868,64.865z M31.282,84.34
			c-1.867,2.722-3.78,5.431-5.809,8.331c-3.312-5.672-6.376-11.199-7.11-17.211c-0.268-2.18-0.297-4.379,1.401-6.358
			c1.365-1.596,5.168-4.351,7.593-5.468c0.297,1.439,0.591,2.842,0.877,4.244c1.054,5.178,2.111,10.357,3.148,15.535
			C31.442,83.713,31.462,84.078,31.282,84.34z M65.698,70.58c-0.695,3.774-1.37,7.548-2.059,11.321
			c-0.019,0.106-0.055,0.212-0.096,0.357c-3.318,0.002-6.643,0.005-9.968,0.005V61.093c0-1.689-1.369-3.059-3.058-3.059
			c-1.689,0-3.059,1.369-3.059,3.059v21.176c-3.427,0.002-6.855,0.005-10.313,0.007c-0.634-3.083-1.317-6.059-1.847-9.049
			c-1.172-6.638-2.54-13.263-3.328-19.923c-1.104-9.357-0.537-18.669,3.176-27.772c2.791-6.851,7.189-13.108,13.292-18.745
			c0.553-0.511,1.09-1.028,1.639-1.542c0.042-0.039,0.12-0.058,0.312-0.146c0.975,0.892,2.006,1.771,2.941,2.699
			c5.052,5.012,8.938,10.45,11.483,16.37c2.634,6.134,3.772,12.427,3.938,18.828C68.994,52.261,67.384,61.423,65.698,70.58z
			 M82.521,74.179c-0.29,4.109-1.966,7.999-3.862,11.842c-0.949,1.921-2.062,3.803-3.231,5.938
			c-2.083-2.974-4.008-5.698-5.903-8.438c-0.136-0.196-0.146-0.469-0.102-0.694c1.289-6.46,2.591-12.918,3.894-19.376
			c0.037-0.178,0.117-0.354,0.215-0.64c2.98,1.771,5.825,3.509,7.755,5.859C82.688,70.376,82.655,72.286,82.521,74.179z"></path><path d="M50.561,27.391c-2.415,0.001-4.766,0.926-6.621,2.607c-1.799,1.63-2.896,4.051-3.01,6.641
			c-0.116,2.628,0.788,5.183,2.475,7.01c1.918,2.075,4.456,3.217,7.138,3.217c2.426,0,4.791-0.958,6.659-2.696
			c3.814-3.549,4.035-9.785,0.48-13.616C55.789,28.514,53.26,27.391,50.561,27.391z M47.629,33.917
			c0.804-0.733,1.838-1.137,2.908-1.137c1.209,0,2.337,0.495,3.176,1.399c1.577,1.691,1.467,4.482-0.238,6.093
			c-0.827,0.781-1.869,1.21-2.938,1.21c-1.15,0-2.247-0.491-3.086-1.382c-0.772-0.819-1.189-1.983-1.143-3.192
			C46.351,35.732,46.833,34.641,47.629,33.917z"></path></g></g></svg>